<svg width="26" height="22" viewBox="0 0 26 22" fill="none" xmlns="http://www.w3.org/2000/svg">
<path d="M23.1045 0.643921H2.00952C1.50091 0.643921 1.01313 0.845966 0.653485 1.20561C0.293842 1.56525 0.0917969 2.05303 0.0917969 2.56165V19.8212C0.0917969 20.3298 0.293842 20.8176 0.653485 21.1772C1.01313 21.5368 1.50091 21.7389 2.00952 21.7389H23.1045C23.6131 21.7389 24.1009 21.5368 24.4605 21.1772C24.8202 20.8176 25.0222 20.3298 25.0222 19.8212V2.56165C25.0222 2.05303 24.8202 1.56525 24.4605 1.20561C24.1009 0.845966 23.6131 0.643921 23.1045 0.643921ZM2.00952 2.56165H23.1045V7.35596H2.00952V2.56165ZM23.1045 19.8212H10.6393V9.27368H23.1045V19.8212Z" fill="white"/>
</svg>
