<svg width="28" height="27" viewBox="0 0 28 27" fill="none" xmlns="http://www.w3.org/2000/svg">
<path d="M27.4635 10.4997C27.4338 10.3657 27.3755 10.2396 27.2928 10.13C27.2101 10.0205 27.1049 9.92991 26.9841 9.86453L24.1319 8.2826C23.9801 7.971 23.8123 7.67139 23.6285 7.38377L23.6765 4.12402C23.6776 3.98729 23.6504 3.85181 23.5968 3.72603C23.5432 3.60024 23.4643 3.48687 23.3649 3.39297C21.9447 2.10533 20.2651 1.13684 18.4393 0.552673C18.3082 0.511788 18.1699 0.499194 18.0335 0.515721C17.8972 0.532248 17.7659 0.577521 17.6483 0.648548L14.856 2.32636C14.5084 2.31438 14.1728 2.31438 13.8253 2.32636L11.0329 0.648548C10.9154 0.577521 10.7841 0.532248 10.6477 0.515721C10.5114 0.499194 10.3731 0.511788 10.242 0.552673C8.41371 1.13728 6.73347 2.11027 5.3164 3.40495C5.21614 3.49562 5.13645 3.6067 5.08271 3.73073C5.02896 3.85476 5.0024 3.98886 5.0048 4.12402L5.06472 7.38377C4.87297 7.67139 4.70519 7.971 4.53741 8.2826L1.69711 9.86453C1.57488 9.92793 1.46839 10.0179 1.38544 10.1278C1.30249 10.2377 1.24519 10.3648 1.21774 10.4997C0.810233 12.3713 0.810233 14.3087 1.21774 16.1803C1.24751 16.3143 1.30571 16.4404 1.38842 16.55C1.47112 16.6595 1.57639 16.7501 1.69711 16.8155L4.5494 18.3974C4.7023 18.7074 4.87441 19.0076 5.06472 19.2962L5.0048 22.556C5.00371 22.6927 5.03081 22.8282 5.08442 22.954C5.13803 23.0798 5.217 23.1931 5.3164 23.287C6.73855 24.572 8.41747 25.5401 10.242 26.1273C10.3731 26.1682 10.5114 26.1808 10.6477 26.1643C10.7841 26.1478 10.9154 26.1025 11.0329 26.0315L13.8253 24.3536H14.856L17.6603 26.0315C17.8061 26.1273 17.9772 26.1774 18.1517 26.1753C18.2491 26.1711 18.3457 26.155 18.4393 26.1273C20.2675 25.5427 21.9478 24.5697 23.3649 23.275C23.4651 23.1844 23.5448 23.0733 23.5986 22.9493C23.6523 22.8252 23.6789 22.6911 23.6765 22.556L23.6285 19.2962C23.8083 19.0086 23.9761 18.709 24.1439 18.3974L26.9961 16.8155C27.1151 16.7494 27.2184 16.6585 27.2991 16.5489C27.3798 16.4393 27.4358 16.3135 27.4635 16.1803C27.871 14.3087 27.871 12.3713 27.4635 10.4997ZM19.6138 13.34C19.6138 14.3829 19.3045 15.4024 18.7251 16.2696C18.1457 17.1368 17.3221 17.8126 16.3586 18.2117C15.395 18.6108 14.3348 18.7153 13.3119 18.5118C12.289 18.3083 11.3494 17.8061 10.612 17.0687C9.87451 16.3312 9.37229 15.3916 9.16883 14.3687C8.96536 13.3459 9.06979 12.2856 9.4689 11.3221C9.86801 10.3585 10.5439 9.53498 11.411 8.95556C12.2782 8.37614 13.2977 8.06688 14.3406 8.06688C15.7392 8.06688 17.0804 8.62244 18.0693 9.61134C19.0582 10.6002 19.6138 11.9415 19.6138 13.34Z" fill="#FEFEFE"/>
</svg>
