<svg width="25" height="26" viewBox="0 0 25 26" fill="none" xmlns="http://www.w3.org/2000/svg">
<path fill-rule="evenodd" clip-rule="evenodd" d="M0.810547 3.61135C0.810547 1.87462 2.22007 0.465088 3.95681 0.465088H8.45148C8.8091 0.465088 9.15207 0.607151 9.40494 0.860025C9.65782 1.1129 9.79988 1.45587 9.79988 1.81349C9.79988 2.17111 9.65782 2.51408 9.40494 2.76695C9.15207 3.01982 8.8091 3.16189 8.45148 3.16189H3.95681C3.83761 3.16189 3.72328 3.20924 3.63899 3.29353C3.5547 3.37783 3.50735 3.49215 3.50735 3.61135V22.489C3.50735 22.7371 3.70871 22.9384 3.95681 22.9384H8.45148C8.8091 22.9384 9.15207 23.0805 9.40494 23.3334C9.65782 23.5862 9.79988 23.9292 9.79988 24.2868C9.79988 24.6444 9.65782 24.9874 9.40494 25.2403C9.15207 25.4932 8.8091 25.6352 8.45148 25.6352H3.95681C3.12237 25.6352 2.32211 25.3037 1.73207 24.7137C1.14203 24.1237 0.810547 23.3234 0.810547 22.489V3.61135ZM19.5803 11.7018H9.35041C8.9928 11.7018 8.64982 11.8438 8.39695 12.0967C8.14408 12.3496 8.00201 12.6925 8.00201 13.0502C8.00201 13.4078 8.14408 13.7507 8.39695 14.0036C8.64982 14.2565 8.9928 14.3986 9.35041 14.3986H19.5803L16.0385 17.9404C15.906 18.0638 15.7997 18.2127 15.726 18.3781C15.6523 18.5435 15.6127 18.722 15.6095 18.9031C15.6063 19.0841 15.6396 19.264 15.7074 19.4319C15.7753 19.5998 15.8762 19.7523 16.0043 19.8803C16.1323 20.0084 16.2848 20.1093 16.4527 20.1771C16.6206 20.2449 16.8004 20.2782 16.9815 20.275C17.1625 20.2719 17.3411 20.2322 17.5065 20.1585C17.6719 20.0848 17.8208 19.9786 17.9442 19.8461L23.7873 14.003C24.0398 13.7502 24.1816 13.4075 24.1816 13.0502C24.1816 12.6928 24.0398 12.3501 23.7873 12.0973L17.9442 6.25422C17.8208 6.12174 17.6719 6.01548 17.5065 5.94178C17.3411 5.86808 17.1625 5.82846 16.9815 5.82526C16.8004 5.82207 16.6206 5.85537 16.4527 5.92319C16.2848 5.99101 16.1323 6.09195 16.0043 6.21999C15.8762 6.34803 15.7753 6.50055 15.7074 6.66845C15.6396 6.83635 15.6063 7.01619 15.6095 7.19724C15.6127 7.37829 15.6523 7.55684 15.726 7.72224C15.7997 7.88765 15.906 8.03651 16.0385 8.15996L19.5803 11.7018Z" fill="white"/>
</svg>
