<svg width="22" height="26" viewBox="0 0 22 26" fill="none" xmlns="http://www.w3.org/2000/svg">
<path d="M20.9267 0.876251H4.62797C3.61184 0.879412 2.63822 1.28447 1.91971 2.00299C1.20119 2.72151 0.796129 3.69512 0.792969 4.71125V24.845C0.792969 25.0993 0.89398 25.3431 1.07378 25.5229C1.25358 25.7027 1.49744 25.8038 1.75172 25.8038H19.0092C19.2635 25.8038 19.5074 25.7027 19.6872 25.5229C19.867 25.3431 19.968 25.0993 19.968 24.845C19.968 24.5907 19.867 24.3469 19.6872 24.1671C19.5074 23.9873 19.2635 23.8863 19.0092 23.8863H2.71047C2.71047 23.3777 2.91249 22.89 3.27209 22.5304C3.63169 22.1708 4.11942 21.9688 4.62797 21.9688H20.9267C21.181 21.9688 21.4249 21.8677 21.6047 21.6879C21.7845 21.5081 21.8855 21.2643 21.8855 21.01V1.835C21.8855 1.58072 21.7845 1.33686 21.6047 1.15706C21.4249 0.977262 21.181 0.876251 20.9267 0.876251ZM18.0505 12.3813L14.9825 10.0803C14.9003 10.0161 14.7991 9.98127 14.6948 9.98127C14.5906 9.98127 14.4894 10.0161 14.4072 10.0803L11.3392 12.3813V2.79375H18.0505V12.3813Z" fill="#F8F8F8"/>
</svg>
