<svg width="24" height="24" viewBox="0 0 24 24" fill="none" xmlns="http://www.w3.org/2000/svg">
<path d="M21.9284 0.835007H2.75344C2.24488 0.835007 1.75716 1.03703 1.39756 1.39663C1.03796 1.75623 0.835938 2.24395 0.835938 2.75251V21.9275C0.835938 22.4361 1.03796 22.9238 1.39756 23.2834C1.75716 23.643 2.24488 23.845 2.75344 23.845H15.7805C16.0322 23.8452 16.2815 23.7956 16.5139 23.6989C16.7464 23.6022 16.9574 23.4604 17.1347 23.2817L23.2827 17.1338C23.4614 16.9564 23.6031 16.7454 23.6998 16.513C23.7965 16.2806 23.8462 16.0313 23.8459 15.7795V2.75251C23.8459 2.24395 23.6439 1.75623 23.2843 1.39663C22.9247 1.03703 22.437 0.835007 21.9284 0.835007ZM8.50594 7.54626H16.1759C16.4302 7.54626 16.6741 7.64727 16.8539 7.82707C17.0337 8.00687 17.1347 8.25073 17.1347 8.50501C17.1347 8.75928 17.0337 9.00315 16.8539 9.18295C16.6741 9.36275 16.4302 9.46376 16.1759 9.46376H8.50594C8.25166 9.46376 8.0078 9.36275 7.828 9.18295C7.6482 9.00315 7.54719 8.75928 7.54719 8.50501C7.54719 8.25073 7.6482 8.00687 7.828 7.82707C8.0078 7.64727 8.25166 7.54626 8.50594 7.54626ZM12.3409 17.1338H8.50594C8.25166 17.1338 8.0078 17.0327 7.828 16.8529C7.6482 16.6731 7.54719 16.4293 7.54719 16.175C7.54719 15.9207 7.6482 15.6769 7.828 15.4971C8.0078 15.3173 8.25166 15.2163 8.50594 15.2163H12.3409C12.5952 15.2163 12.8391 15.3173 13.0189 15.4971C13.1987 15.6769 13.2997 15.9207 13.2997 16.175C13.2997 16.4293 13.1987 16.6731 13.0189 16.8529C12.8391 17.0327 12.5952 17.1338 12.3409 17.1338ZM8.50594 13.2988C8.25166 13.2988 8.0078 13.1977 7.828 13.0179C7.6482 12.8381 7.54719 12.5943 7.54719 12.34C7.54719 12.0857 7.6482 11.8419 7.828 11.6621C8.0078 11.4823 8.25166 11.3813 8.50594 11.3813H16.1759C16.4302 11.3813 16.6741 11.4823 16.8539 11.6621C17.0337 11.8419 17.1347 12.0857 17.1347 12.34C17.1347 12.5943 17.0337 12.8381 16.8539 13.0179C16.6741 13.1977 16.4302 13.2988 16.1759 13.2988H8.50594ZM16.1759 21.532V16.175H21.533L16.1759 21.532Z" fill="white"/>
</svg>
