<svg width="69" height="68" viewBox="0 0 69 68" fill="none" xmlns="http://www.w3.org/2000/svg">
<ellipse cx="34.5" cy="34" rx="34.5" ry="34" fill="#3AB54A"/>
<path d="M27.5 33C30.5376 33 33 30.5376 33 27.5C33 24.4624 30.5376 22 27.5 22C24.4624 22 22 24.4624 22 27.5C22 30.5376 24.4624 33 27.5 33Z" fill="white"/>
<path d="M40.5 33C43.5376 33 46 30.5376 46 27.5C46 24.4624 43.5376 22 40.5 22C37.4624 22 35 24.4624 35 27.5C35 30.5376 37.4624 33 40.5 33Z" fill="white"/>
<path d="M27.5 46C30.5376 46 33 43.5376 33 40.5C33 37.4624 30.5376 35 27.5 35C24.4624 35 22 37.4624 22 40.5C22 43.5376 24.4624 46 27.5 46Z" fill="white"/>
<path d="M40.5 46C43.5376 46 46 43.5376 46 40.5C46 37.4624 43.5376 35 40.5 35C37.4624 35 35 37.4624 35 40.5C35 43.5376 37.4624 46 40.5 46Z" fill="white"/>
</svg>
